<?xml version="1.0" standalone="no"?>
<!DOCTYPE svg PUBLIC "-//W3C//DTD SVG 20010904//EN"
 "http://www.w3.org/TR/2001/REC-SVG-20010904/DTD/svg10.dtd">
<svg version="1.0" xmlns="http://www.w3.org/2000/svg"
 width="1672.000000pt" height="1568.000000pt" viewBox="0 0 1672.000000 1568.000000"
 preserveAspectRatio="xMidYMid meet">

<g transform="translate(0.000000,1568.000000) scale(0.100000,-0.100000)"
fill="#000000" stroke="none">
<path d="M585 15599 c-241 -18 -410 -58 -464 -108 l-31 -29 0 -3855 0 -3854
55 -52 c90 -85 120 -94 330 -101 103 -4 189 -11 200 -17 19 -11 20 -22 20
-195 0 -178 1 -185 27 -240 15 -32 48 -78 73 -103 l47 -45 787 0 787 0 69 70
70 71 5 1278 5 1278 308 -791 c169 -435 307 -799 307 -809 0 -10 5 -27 10 -37
8 -15 -88 -307 -451 -1377 -254 -747 -464 -1379 -467 -1404 -12 -120 43 -172
305 -289 l191 -85 -45 -125 c-58 -161 -67 -261 -34 -366 12 -38 27 -80 35 -93
12 -21 117 -60 760 -278 l747 -253 86 46 c47 26 96 56 109 68 19 17 127 324
514 1466 270 794 492 1445 493 1446 1 1 70 -25 152 -58 199 -79 433 -158 468
-158 15 0 27 -4 27 -10 0 -5 -178 -534 -396 -1175 -315 -929 -395 -1173 -390
-1198 10 -51 63 -135 106 -166 21 -15 81 -43 132 -61 114 -39 229 -92 245
-111 9 -12 2 -40 -38 -139 -27 -69 -53 -150 -59 -180 -13 -71 2 -154 40 -231
l29 -56 278 -93 c153 -51 293 -101 311 -110 18 -10 81 -71 141 -136 380 -417
1144 -1012 2126 -1656 478 -314 702 -445 1330 -781 248 -132 459 -246 470
-253 31 -20 272 -100 387 -128 222 -55 462 -75 653 -56 114 11 258 44 595 135
90 24 163 37 263 44 341 26 644 128 917 308 357 236 696 635 919 1083 147 295
208 541 198 795 -3 77 -12 166 -20 197 l-14 58 176 0 176 0 173 258 c95 141
172 260 172 264 0 3 -16 16 -36 28 -40 25 -37 32 21 50 22 7 52 21 67 31 14
11 31 19 37 19 13 0 374 178 431 212 19 11 64 36 100 56 70 37 344 216 370
242 9 8 38 33 64 55 92 77 262 251 308 315 70 99 162 260 183 320 1 3 7 19 14
35 27 65 34 82 53 150 14 47 22 108 24 184 2 63 6 116 9 119 2 3 0 12 -5 21
-5 10 -5 23 0 31 9 15 3 64 -13 94 -5 10 -10 33 -12 50 -3 31 -34 164 -57 241
-14 46 -12 39 -22 90 -4 22 -15 69 -25 105 -10 36 -26 99 -36 140 -16 70 -26
106 -71 250 -9 30 -23 82 -31 115 -27 113 -41 170 -73 285 -38 139 -36 132
-43 150 -4 8 -18 60 -32 115 -14 55 -33 119 -42 143 -9 23 -13 45 -10 48 3 4
0 22 -8 41 -8 18 -28 87 -45 151 -18 64 -38 137 -47 162 -8 25 -17 59 -19 76
-2 17 -11 47 -19 67 -8 20 -16 52 -17 72 -2 19 -6 35 -9 35 -4 0 -9 18 -13 40
-3 23 -11 49 -16 58 -8 14 -26 73 -36 117 -8 39 -37 141 -54 194 -11 35 -20
77 -20 92 0 16 -4 29 -9 29 -8 0 -17 30 -28 87 -2 12 -14 56 -28 96 -13 41
-31 105 -40 143 -8 38 -19 78 -25 89 -7 16 -39 130 -65 240 -9 37 -42 150 -48
165 -3 8 -17 60 -32 115 -14 55 -30 107 -35 116 -5 9 -12 36 -15 59 -3 23 -10
50 -14 59 -5 9 -15 41 -24 71 -8 30 -24 87 -36 125 -11 39 -23 84 -27 100 -3
17 -13 48 -21 70 -9 22 -17 50 -18 63 -2 12 -11 48 -20 80 -29 95 -58 202
-100 357 -42 159 -47 175 -90 315 -3 8 -11 40 -19 70 -8 30 -19 69 -25 85 -27
77 -61 205 -61 228 0 14 -5 27 -11 29 -6 2 -12 16 -11 31 0 15 -4 30 -9 33 -5
3 -9 14 -9 24 0 19 -10 54 -66 231 -13 42 -24 87 -24 101 0 13 -5 29 -12 36
-7 7 -9 12 -6 12 4 0 2 15 -3 33 -14 43 -73 251 -98 342 -5 17 -18 59 -29 95
-28 89 -60 199 -68 235 -4 17 -10 35 -14 40 -4 6 -17 53 -29 105 -12 52 -26
109 -32 127 -5 18 -12 40 -14 50 -2 10 -9 32 -15 48 -12 30 -14 37 -30 105 -5
19 -27 103 -50 185 -23 83 -46 166 -50 185 -25 103 -32 126 -41 134 -5 6 -9
19 -9 30 0 24 -20 95 -70 251 -21 66 -48 154 -60 195 -61 213 -98 334 -117
377 -7 17 -13 38 -13 46 0 9 -4 18 -9 21 -5 4 -12 24 -16 46 -4 22 -11 42 -16
46 -5 3 -9 11 -9 18 0 8 -7 30 -15 50 -8 20 -14 37 -14 38 2 3 -86 142 -101
162 -5 6 -33 43 -62 81 -29 39 -57 75 -63 81 -68 72 -115 166 -115 236 0 31 3
58 8 60 4 2 24 26 45 55 47 64 97 200 97 262 0 55 -28 150 -61 211 -22 40
-109 137 -127 141 -17 4 -52 23 -52 29 0 6 -94 43 -115 45 -5 1 -17 4 -25 7
-8 3 -62 13 -120 22 -125 19 -592 24 -760 7 -58 -5 -136 -13 -175 -16 -38 -3
-90 -8 -115 -10 -25 -3 -94 -10 -155 -15 -214 -21 -641 -95 -965 -169 -25 -5
-66 -12 -92 -15 -25 -3 -77 -12 -115 -20 -37 -9 -79 -18 -93 -20 -14 -2 -52
-12 -85 -21 -88 -26 -555 -146 -590 -152 -16 -3 -34 -9 -40 -13 -5 -5 -37 -16
-70 -25 -33 -10 -64 -21 -70 -25 -5 -4 -41 -17 -80 -29 -84 -27 -247 -86 -292
-107 -17 -8 -36 -14 -42 -14 -6 0 -19 -4 -29 -9 -9 -6 -73 -33 -142 -62 -131
-54 -502 -235 -605 -295 -33 -19 -75 -41 -93 -49 -17 -9 -56 -30 -85 -48 -28
-19 -59 -37 -67 -40 -8 -4 -31 -20 -51 -35 -20 -15 -72 -52 -115 -84 -107 -76
-167 -138 -231 -235 -29 -44 -53 -84 -53 -88 0 -4 -6 -21 -14 -38 -35 -80 -50
-242 -26 -287 5 -10 10 -27 10 -37 0 -18 69 -103 82 -103 4 0 21 -13 39 -29
30 -28 52 -39 151 -78 l47 -18 11 -65 c10 -59 1 -194 -15 -220 -5 -9 -13 -58
-26 -170 -12 -103 -5 -329 10 -358 6 -11 11 -37 11 -56 0 -20 4 -36 9 -36 5 0
11 -17 14 -37 7 -50 26 -133 36 -158 10 -23 49 -153 62 -205 28 -117 44 -176
71 -265 33 -110 37 -125 43 -152 7 -31 45 -167 52 -183 3 -8 8 -24 10 -34 2
-11 11 -40 19 -65 9 -25 16 -56 16 -68 0 -13 4 -23 7 -23 6 0 24 -55 36 -110
1 -3 7 -25 15 -50 7 -25 13 -53 12 -62 0 -10 3 -18 8 -18 4 0 12 -19 16 -42 9
-51 8 -47 21 -78 14 -32 49 -153 58 -200 4 -19 11 -41 15 -50 5 -8 13 -33 19
-55 30 -110 71 -254 80 -285 l11 -35 -24 30 c-14 17 -43 86 -66 155 -78 232
-153 404 -217 496 -37 55 -436 433 -538 510 -116 88 -289 200 -375 244 -41 20
-510 185 -1041 365 -965 328 -966 329 -978 360 -8 23 -11 361 -11 1238 l0
1206 -47 63 c-88 114 -194 170 -292 152 -58 -11 -202 -7 -236 6 -25 9 -25 10
-25 128 0 66 -5 144 -10 173 -14 76 -60 164 -120 232 l-52 57 -767 0 -768 0
-61 -92 c-108 -164 -116 -188 -122 -373 -4 -88 -3 -169 1 -180 40 -109 39 -79
39 -1126 l0 -1001 -21 14 c-16 10 -110 260 -389 1033 -407 1131 -380 1070
-484 1100 -30 9 -107 19 -170 24 -64 4 -121 12 -127 18 -14 14 -142 312 -179
421 -30 85 -37 96 -79 125 l-46 32 -615 1 c-338 1 -664 -2 -725 -7z m1102 -99
c95 -5 183 -12 196 -15 42 -11 295 -525 498 -1014 194 -464 309 -782 614
-1691 321 -955 516 -1523 527 -1535 7 -6 8 498 4 1440 -8 1673 -17 2324 -34
2375 -17 49 -15 145 4 215 18 71 53 133 107 192 l40 43 681 0 681 0 88 -88 87
-87 0 -1376 c0 -757 -2 -1378 -5 -1381 -3 -3 -47 8 -98 24 -94 30 -158 32
-224 7 -18 -6 -25 -4 -33 11 -7 12 -10 437 -10 1259 l0 1241 -465 0 -465 0 -2
-2502 c-1 -1377 -3 -2521 -4 -2543 -1 -22 -2 -47 -3 -56 -1 -19 -39 -62 -67
-76 -10 -6 -34 -13 -53 -17 -30 -5 -38 -2 -67 30 -101 106 -253 446 -517 1154
-150 403 -220 587 -365 955 -61 154 -198 519 -305 810 -323 878 -726 1955
-832 2228 -7 16 -42 17 -546 17 l-539 0 0 -3515 0 -3515 440 0 440 0 0 2538
c0 2395 1 2539 18 2572 25 51 86 81 165 82 72 0 129 -20 151 -55 18 -26 1086
-2893 1426 -3824 115 -317 206 -581 203 -591 -2 -10 2 -25 10 -33 12 -12 1
-51 -77 -281 l-91 -266 -684 1817 c-376 999 -687 1820 -692 1826 -5 5 -9 -848
-9 -2031 l0 -2041 -72 -51 -73 -52 -705 0 -705 0 -40 26 c-22 15 -52 38 -68
52 l-27 26 0 3790 c0 2989 3 3796 13 3815 19 38 61 63 134 82 61 16 125 18
623 18 305 0 633 -4 727 -9z m11573 -239 c159 -8 184 -11 270 -41 111 -38 113
-40 147 -98 23 -39 26 -56 26 -131 0 -71 -5 -96 -27 -145 -19 -43 -30 -57 -41
-52 -9 3 -14 2 -11 -3 3 -5 -20 -30 -50 -57 -31 -27 -62 -54 -68 -59 -6 -6
-36 -26 -66 -45 -30 -19 -57 -37 -60 -40 -3 -3 -15 -11 -28 -18 -70 -39 -142
-78 -177 -95 -22 -11 -51 -28 -64 -38 -29 -23 -42 -24 -35 -4 7 17 -4 19 -26
5 -13 -9 -13 -11 0 -20 13 -8 12 -10 -2 -10 -10 0 -18 5 -18 10 0 13 -11 13
-30 0 -12 -8 -13 -12 -2 -19 11 -6 9 -9 -6 -13 -14 -4 -19 -2 -15 7 5 14 -6
14 -42 1 -39 -14 -50 -23 -50 -41 0 -10 -7 -20 -15 -23 -8 -2 -55 -21 -105
-42 -49 -21 -124 -50 -165 -65 -41 -15 -88 -33 -105 -41 -38 -16 -173 -63
-485 -168 -338 -114 -407 -136 -426 -136 -9 0 -37 -7 -63 -14 -170 -54 -445
-127 -601 -162 -63 -13 -153 -33 -200 -44 -193 -43 -539 -105 -675 -121 -44
-5 -93 -11 -110 -13 -16 -2 -66 -7 -110 -11 -44 -4 -143 -15 -220 -26 -77 -11
-201 -24 -275 -30 -74 -6 -160 -13 -190 -15 -120 -10 -370 -10 -370 1 0 6 35
10 93 10 99 -1 117 3 96 16 -11 7 -10 9 3 9 9 0 19 -6 22 -12 5 -10 7 -10 12
1 5 11 8 11 14 0 6 -9 12 -10 22 -2 7 6 51 17 98 23 135 18 240 60 240 96 0
26 -105 38 -335 39 -99 1 -200 4 -225 8 -67 10 -177 46 -191 63 -15 19 -54 18
-73 -1 -8 -9 -15 -30 -15 -48 1 -18 -4 -45 -10 -60 -7 -17 -7 -26 -1 -22 6 3
13 -1 16 -9 5 -14 70 -43 86 -38 4 1 5 -5 2 -12 -6 -15 6 -21 69 -32 57 -10
49 -34 -13 -34 -37 0 -50 4 -50 14 0 18 -43 33 -48 18 -4 -14 -92 32 -134 71
-23 23 -34 42 -35 67 -2 19 -7 36 -13 38 -14 5 -13 39 3 46 8 4 9 8 1 11 -20
10 7 96 50 160 49 74 58 83 75 77 8 -3 12 1 9 9 -2 7 16 31 41 52 25 22 47 35
49 28 6 -18 24 -13 20 7 -4 22 21 52 44 52 10 0 18 4 18 9 0 4 28 25 63 47 34
21 68 44 76 52 8 7 24 18 35 23 12 5 39 21 61 34 22 14 52 30 66 36 14 5 41
19 60 30 49 29 157 79 169 79 5 0 10 5 10 10 0 6 8 10 18 10 10 0 27 7 38 15
10 8 25 15 33 15 8 0 47 16 87 35 40 19 78 35 86 35 7 0 29 11 49 24 19 13 57
31 85 39 27 8 87 31 132 51 46 20 88 36 94 36 5 0 24 6 41 14 18 7 55 21 82
31 28 9 59 21 70 26 45 21 163 62 205 71 25 6 50 14 55 18 14 11 117 41 340
100 99 26 187 49 195 53 8 3 46 11 85 17 38 6 74 15 80 20 5 4 37 12 70 18 33
5 85 17 115 25 30 8 105 22 165 32 61 9 117 20 125 23 8 3 20 6 25 7 6 0 26 4
45 7 65 12 175 28 220 33 25 2 72 9 104 15 33 7 78 13 100 15 23 2 66 8 96 14
55 10 144 19 255 26 33 2 96 6 140 10 44 3 121 8 170 10 266 11 390 18 393 20
2 2 11 1 20 -1 9 -2 96 -8 192 -13z m-9127 -288 c-22 -27 -56 -73 -78 -103
-21 -30 -42 -59 -47 -64 -4 -6 -8 40 -8 102 l0 112 86 0 86 0 -39 -47z m9367
-636 c16 -24 36 -50 45 -57 8 -7 15 -16 15 -19 0 -4 35 -44 78 -88 105 -111
121 -131 203 -261 l71 -112 -32 -54 c-46 -76 -141 -171 -224 -224 -39 -24 -89
-59 -111 -77 -22 -17 -71 -47 -110 -67 -75 -37 -117 -60 -125 -68 -9 -9 -47
-30 -230 -126 -41 -22 -111 -53 -155 -68 -44 -15 -98 -36 -120 -46 -22 -9 -67
-28 -100 -40 -33 -13 -93 -38 -133 -56 -40 -19 -77 -34 -82 -34 -6 0 -18 -4
-28 -10 -23 -13 -187 -75 -282 -106 -41 -14 -84 -29 -95 -34 -11 -5 -56 -18
-100 -30 -44 -12 -89 -25 -100 -30 -11 -6 -49 -17 -85 -26 -36 -8 -81 -20
-100 -25 -19 -6 -51 -15 -70 -20 -19 -6 -84 -20 -145 -33 -60 -13 -173 -38
-250 -56 -144 -33 -211 -46 -280 -55 -22 -3 -69 -11 -105 -19 -163 -37 -594
-117 -608 -114 -4 1 -38 -4 -77 -10 -164 -28 -517 -55 -683 -53 -72 1 -69 -3
-104 135 -15 60 -20 114 -20 220 0 78 -2 149 -5 158 -4 17 -114 78 -139 78
-13 0 -73 64 -134 143 -25 31 -48 57 -52 57 -13 0 -38 -44 -28 -50 11 -7 -13
-112 -32 -137 -5 -7 -12 -36 -14 -65 -3 -29 -9 -67 -14 -85 -14 -56 -12 -293
5 -353 8 -30 12 -56 10 -58 -8 -9 -126 33 -146 51 -18 17 -20 27 -15 100 10
143 25 300 35 357 13 74 8 337 -7 352 -7 7 -12 16 -12 20 0 5 71 8 158 7 148
-1 217 3 372 18 36 3 74 5 86 4 11 -1 41 3 65 8 25 6 96 15 157 21 61 6 122
14 134 19 13 5 64 12 113 15 50 4 97 9 105 12 9 2 41 6 72 8 30 3 71 7 89 10
19 3 51 8 73 11 21 3 41 7 45 9 3 2 22 7 41 10 19 3 53 11 75 17 22 6 63 14
90 19 28 4 84 16 125 25 41 9 86 18 100 20 14 3 52 12 85 20 33 9 84 21 114
26 29 5 61 14 71 19 9 5 39 12 66 16 27 3 56 10 64 14 17 9 143 42 250 65 36
8 76 19 90 24 14 5 39 12 55 16 17 3 66 17 110 30 44 13 127 38 185 55 58 17
132 41 165 54 135 53 191 67 219 55 14 -7 26 -16 26 -21 0 -4 5 -8 10 -8 12 0
45 -34 76 -76 10 -14 24 -32 31 -39 7 -7 9 -15 6 -19 -4 -3 -1 -6 5 -6 6 0 25
-28 42 -62 17 -35 37 -72 45 -82 8 -11 15 -26 15 -35 0 -8 13 -35 29 -60 16
-25 34 -64 41 -86 7 -22 19 -46 27 -53 7 -7 13 -19 13 -26 0 -7 7 -27 15 -44
15 -29 19 -40 32 -102 7 -31 20 -40 60 -40 39 0 145 27 152 39 3 4 17 12 31
16 14 4 37 16 52 26 14 11 29 19 33 19 15 0 152 74 195 105 25 18 63 43 85 55
22 12 57 31 78 43 46 26 65 78 42 114 -9 13 -19 23 -24 23 -5 0 -12 11 -15 24
-8 33 -76 146 -87 146 -5 0 -9 6 -9 13 0 7 -7 22 -15 32 -93 124 -134 190
-127 202 9 14 83 53 100 53 13 0 61 -46 104 -101 15 -19 37 -46 50 -61 13 -14
30 -35 38 -45 28 -34 95 -138 112 -173 10 -19 17 -30 18 -25 0 6 10 -3 23 -18
18 -23 27 -27 50 -22 15 4 27 11 27 16 0 5 5 9 11 9 9 0 61 37 110 80 10 8 24
20 31 26 38 33 78 95 78 120 0 17 -30 66 -46 77 -7 4 -23 24 -35 45 -13 20
-33 48 -46 62 -13 14 -36 39 -51 56 -15 17 -50 58 -79 90 -80 90 -116 137
-138 177 -11 20 -23 37 -27 37 -21 0 -4 21 35 44 l42 26 8 -30 c4 -16 21 -49
37 -73z m-8801 -899 l-1 -993 -49 -135 -48 -135 0 1128 -1 1127 50 0 51 0 -2
-992z m-2588 142 c170 -459 309 -838 309 -841 0 -4 -26 4 -57 17 -74 30 -119
30 -193 -1 -33 -14 -62 -25 -64 -25 -3 0 -30 78 -61 174 -117 367 -226 500
-396 484 -108 -11 -277 -130 -292 -207 -4 -18 -7 -1151 -7 -2517 l0 -2484 -35
0 -35 0 0 3120 0 3120 261 -2 261 -3 309 -835z m10849 796 c0 -2 -7 -7 -16
-10 -8 -3 -12 -2 -9 4 6 10 25 14 25 6z m1051 -853 c2 -20 11 -62 21 -98 13
-47 18 -74 19 -97 0 -10 4 -18 8 -18 5 0 11 -12 14 -27 4 -23 23 -87 52 -183
7 -24 36 -132 45 -170 4 -19 18 -69 30 -110 12 -41 32 -114 46 -163 13 -48 28
-95 32 -105 5 -9 7 -22 5 -29 -2 -6 2 -24 10 -40 8 -15 20 -54 27 -86 6 -33
18 -73 25 -90 7 -18 15 -45 18 -62 10 -57 38 -160 48 -178 5 -10 16 -54 25
-98 8 -45 19 -89 24 -98 5 -9 19 -50 30 -91 12 -41 32 -113 46 -160 13 -47 26
-94 28 -105 5 -29 36 -136 46 -160 17 -41 19 -54 7 -59 -8 -3 -7 -8 4 -15 9
-6 20 -28 24 -48 4 -21 11 -43 16 -49 5 -6 10 -31 11 -55 0 -24 5 -47 11 -50
5 -4 15 -31 22 -60 8 -30 21 -79 30 -109 23 -79 26 -93 28 -115 1 -11 4 -22 7
-25 6 -5 16 -43 50 -175 12 -44 25 -89 30 -100 4 -11 22 -74 40 -140 17 -66
36 -131 41 -144 6 -13 18 -58 29 -100 19 -78 79 -291 104 -371 24 -76 67 -219
71 -237 25 -114 36 -157 53 -208 29 -90 92 -312 122 -435 15 -62 51 -184 60
-205 12 -26 24 -87 21 -102 -1 -7 3 -13 9 -13 5 0 10 -6 10 -14 0 -7 7 -36 15
-62 8 -27 24 -83 36 -124 11 -41 30 -104 41 -140 11 -36 22 -74 24 -85 2 -11
20 -76 40 -145 20 -69 39 -141 43 -161 4 -19 11 -40 14 -46 4 -6 1 -14 -5 -17
-10 -3 -8 -9 5 -19 9 -8 17 -21 17 -28 0 -13 26 -101 61 -207 6 -18 12 -42 13
-55 2 -12 6 -29 9 -37 12 -34 37 -119 52 -180 9 -36 20 -74 24 -85 5 -11 19
-58 31 -105 12 -47 30 -110 40 -140 25 -75 70 -239 77 -273 2 -16 11 -47 19
-69 8 -22 14 -51 14 -64 0 -13 4 -24 9 -24 5 0 12 -17 16 -37 4 -21 15 -63 26
-93 10 -30 20 -68 21 -85 1 -16 5 -34 9 -40 4 -5 17 -48 29 -95 11 -47 32
-119 44 -160 32 -102 40 -138 37 -185 -2 -45 -19 -103 -37 -125 -7 -8 -16 -27
-19 -42 -4 -16 -11 -28 -16 -28 -5 0 -9 -8 -9 -19 0 -10 -10 -29 -22 -43 -13
-13 -36 -42 -53 -64 -55 -73 -211 -234 -255 -263 -14 -9 -42 -31 -63 -50 -20
-19 -48 -42 -61 -50 -13 -9 -57 -38 -97 -66 -41 -27 -92 -59 -114 -70 -22 -11
-42 -23 -45 -26 -3 -3 -12 -8 -20 -12 -15 -7 -22 -11 -95 -58 -22 -14 -69 -40
-105 -58 -36 -19 -72 -39 -80 -46 -8 -7 -40 -24 -70 -38 -30 -14 -95 -44 -143
-66 -49 -23 -90 -41 -93 -41 -3 0 -55 -24 -117 -53 -133 -64 -282 -125 -392
-163 -44 -15 -84 -30 -90 -34 -5 -4 -35 -13 -65 -20 -30 -7 -89 -25 -132 -41
-42 -15 -111 -35 -155 -44 -43 -10 -172 -41 -288 -70 -207 -53 -285 -68 -357
-69 -20 -1 -34 -4 -31 -8 2 -5 -9 -8 -25 -8 -17 0 -67 -7 -113 -16 -46 -8
-101 -17 -124 -19 -22 -2 -76 -6 -120 -10 -44 -4 -98 -11 -120 -15 -34 -7
-228 -24 -275 -23 -8 0 -55 3 -105 6 -49 4 -146 9 -215 12 -69 3 -150 8 -180
11 -30 3 -75 8 -100 10 -127 11 -234 30 -375 66 -85 21 -144 49 -185 86 -14
12 -32 24 -41 27 -14 5 -55 116 -51 137 2 7 -4 24 -34 103 -4 11 -8 25 -8 30
-1 6 -12 44 -24 85 -62 204 -75 250 -92 315 -10 39 -28 97 -40 130 -11 33 -24
76 -27 95 -3 19 -10 38 -15 41 -6 4 -8 12 -4 17 4 6 2 19 -3 29 -5 10 -21 56
-35 103 -14 47 -35 117 -46 155 -12 39 -23 77 -26 85 -37 135 -109 381 -151
515 -8 28 -17 57 -19 65 -60 235 -88 332 -124 425 -4 11 -12 43 -18 70 -6 28
-27 104 -47 170 -35 113 -107 363 -124 430 -4 17 -17 57 -28 90 -52 156 -73
224 -73 243 0 12 -4 23 -8 26 -5 3 -14 31 -21 62 -7 32 -26 96 -42 143 -16 47
-29 98 -29 113 0 15 -4 29 -9 32 -5 3 -12 21 -15 40 -4 19 -16 63 -27 98 -12
35 -23 72 -25 83 -6 38 -36 160 -44 180 -5 11 -14 43 -21 70 -6 28 -16 56 -22
63 -5 6 -7 12 -4 12 3 0 0 15 -8 34 -8 18 -16 44 -19 57 -15 70 -37 156 -45
174 -5 11 -13 34 -17 50 -4 17 -8 32 -9 35 -22 75 -33 112 -61 195 -19 56 -34
113 -34 127 0 15 -4 29 -9 32 -5 4 -12 24 -16 47 -4 22 -15 64 -25 92 -10 28
-16 55 -14 59 3 5 1 8 -4 8 -5 0 -12 12 -15 28 -7 44 -39 165 -49 187 -4 11
-13 43 -18 70 -13 64 -14 68 -22 80 -3 6 -22 66 -41 135 -93 326 -119 416
-124 430 -3 8 -7 20 -8 25 0 6 -4 17 -8 25 -7 17 -62 208 -82 285 -7 28 -17
61 -23 75 -5 14 -15 45 -22 70 -7 25 -21 72 -31 105 -17 55 -28 96 -75 270 -8
33 -26 94 -39 135 -12 41 -33 113 -45 160 -13 47 -31 111 -41 142 -11 32 -19
66 -19 76 0 10 -3 22 -8 26 -4 4 -7 11 -7 14 0 4 -7 27 -16 52 -9 25 -22 65
-28 90 -16 61 -52 180 -62 205 -10 26 -18 65 -14 65 2 0 15 -4 28 -9 115 -44
742 -47 1112 -5 38 4 41 3 68 -41 15 -25 27 -50 27 -56 0 -5 29 -40 65 -78 36
-38 82 -88 103 -111 20 -24 45 -50 55 -59 11 -9 38 -33 60 -54 23 -20 50 -40
60 -43 9 -3 17 -10 17 -15 0 -5 7 -9 15 -9 8 0 15 -3 15 -7 0 -5 12 -16 28
-25 15 -9 52 -34 82 -55 30 -22 78 -55 105 -73 28 -19 52 -36 55 -39 11 -13
69 -50 115 -75 28 -15 68 -37 90 -49 47 -27 161 -85 190 -98 91 -39 275 -102
372 -127 62 -16 103 -32 103 -39 0 -16 12 -17 27 -2 7 7 17 8 29 1 11 -5 39
-12 64 -16 24 -4 109 -22 187 -41 79 -19 158 -37 176 -39 102 -14 167 -33 378
-109 75 -27 135 -72 197 -149 84 -103 122 -175 148 -275 33 -131 32 -172 -13
-351 -3 -12 -9 -25 -14 -28 -5 -3 -9 -14 -9 -24 0 -10 -6 -25 -14 -32 -7 -8
-16 -24 -20 -36 -4 -12 -13 -28 -20 -34 -6 -7 -27 -40 -46 -73 -18 -33 -51
-86 -72 -117 -21 -31 -38 -62 -38 -67 0 -6 -4 -11 -10 -11 -5 0 -10 -6 -10
-14 0 -8 -6 -21 -13 -28 -23 -24 -117 -219 -117 -243 0 -13 -4 -26 -9 -30 -6
-3 -9 -13 -9 -23 0 -9 -7 -50 -16 -90 -20 -93 -20 -174 0 -263 13 -57 23 -78
57 -113 46 -48 62 -58 131 -81 112 -38 311 -7 496 77 66 30 219 105 255 125
11 7 27 14 35 17 16 6 51 27 60 36 15 15 179 94 242 117 175 63 268 70 428 32
25 -6 59 -17 77 -25 17 -8 35 -14 40 -14 6 0 36 -26 67 -57 75 -75 80 -82 101
-123 9 -19 24 -47 31 -61 7 -14 15 -34 17 -45 1 -10 6 -25 11 -33 20 -32 13
-468 -9 -571 -4 -20 -18 -463 -18 -615 0 -49 5 -107 11 -119 2 -4 6 -29 8 -54
2 -25 8 -50 14 -56 5 -5 10 -20 10 -32 0 -12 4 -24 10 -26 5 -1 11 -15 12 -30
1 -16 8 -28 15 -28 12 0 17 -13 14 -32 -2 -13 32 -48 46 -48 7 0 13 -6 13 -13
0 -19 72 -93 99 -102 11 -3 21 -10 21 -14 0 -5 14 -14 30 -21 17 -7 30 -16 30
-20 0 -25 274 -36 289 -11 3 5 32 16 64 24 34 9 72 28 92 46 20 17 40 31 45
31 6 0 36 25 67 55 32 30 54 55 51 55 -4 0 4 12 18 28 14 15 31 27 36 27 6 0
14 7 17 16 6 17 52 78 86 115 26 28 44 55 51 77 4 9 10 17 15 17 14 0 10 49
-6 73 -13 21 -42 124 -65 230 -4 23 -18 80 -30 127 -12 47 -23 93 -25 103 -2
10 -7 27 -10 37 -8 24 -16 58 -22 93 -3 15 -9 30 -14 33 -5 3 -9 17 -9 31 0
15 -8 45 -19 67 -17 37 -34 93 -46 151 -11 52 -47 203 -56 232 -5 17 -12 54
-16 82 -3 28 -10 51 -14 51 -5 0 -9 12 -9 28 0 15 -16 65 -36 112 -19 47 -39
101 -43 120 -5 19 -18 70 -30 113 -19 73 -19 80 -4 95 11 12 12 17 3 20 -7 3
-15 -1 -19 -7 -4 -6 -16 24 -28 67 -11 42 -30 109 -42 149 -11 40 -18 80 -14
89 4 11 2 15 -4 11 -6 -4 -15 17 -23 53 -7 33 -16 60 -20 60 -4 0 -10 19 -14
42 -4 23 -12 49 -19 57 -7 8 -11 16 -9 18 6 7 -10 93 -18 93 -4 0 -10 15 -13
33 -3 17 -19 82 -36 142 -18 61 -35 124 -37 140 -3 17 -14 55 -24 85 -10 30
-28 93 -40 140 -13 47 -27 91 -33 98 -5 6 -7 25 -4 41 4 19 2 31 -7 34 -7 3
-19 27 -26 54 -7 26 -19 62 -26 78 -17 40 -52 164 -69 245 -7 36 -18 81 -23
100 -6 19 -18 67 -28 105 -9 39 -34 126 -54 195 -21 69 -42 148 -48 175 -17
81 -38 149 -69 223 -8 18 -12 36 -8 41 3 5 1 11 -4 13 -6 1 -13 27 -16 55 -3
29 -13 70 -22 90 -9 21 -20 56 -25 78 -4 22 -10 45 -12 50 -9 27 -14 43 -25
75 -7 19 -14 50 -17 68 -2 18 -14 67 -25 108 -11 41 -23 86 -25 100 -3 14 -11
44 -19 67 -7 23 -21 71 -30 107 -9 36 -19 72 -22 80 -3 8 -7 20 -8 25 -2 6
-12 37 -23 70 -11 33 -22 74 -25 91 -3 17 -9 39 -15 50 -14 26 -35 101 -35
122 0 9 -3 19 -7 22 -3 3 -19 64 -34 135 -15 72 -33 141 -40 155 -10 22 -9 28
16 52 28 27 47 35 49 21z m-5188 -40 c-7 -2 -19 -2 -25 0 -7 3 -2 5 12 5 14 0
19 -2 13 -5z m62 -3 c-3 -5 -10 -10 -16 -10 -5 0 -9 5 -9 10 0 6 7 10 16 10 8
0 12 -4 9 -10z m-2557 -1401 c1068 -362 1415 -484 1511 -530 225 -108 402
-239 607 -450 290 -299 456 -594 531 -939 28 -131 25 -452 -5 -619 -31 -170
-92 -403 -140 -537 -221 -613 -517 -1015 -889 -1207 -89 -46 -256 -107 -293
-107 -10 0 -21 -4 -25 -9 -3 -6 34 -77 83 -158 111 -184 144 -249 140 -274 -2
-16 -32 -30 -148 -70 -80 -27 -149 -50 -154 -52 -4 -1 -22 23 -38 53 -86 157
-182 255 -397 405 -177 123 -192 149 -155 258 34 100 106 133 339 157 248 26
439 79 555 155 237 155 443 425 575 754 177 442 227 875 140 1226 -30 124 -53
184 -117 306 -115 221 -260 371 -606 625 l-233 171 -1260 428 c-693 235 -1262
426 -1264 423 -13 -13 -2264 -6662 -2258 -6668 9 -8 867 -300 882 -300 5 0 34
73 64 163 30 89 253 746 496 1460 242 714 441 1300 441 1301 0 6 118 86 127
86 4 0 244 -79 532 -177 l524 -177 131 -79 c72 -44 150 -88 174 -98 121 -53
206 -178 276 -409 78 -259 107 -557 68 -695 -33 -117 -64 -196 -89 -233 -14
-22 -21 -43 -17 -54 4 -14 -15 -50 -64 -121 -401 -589 -594 -1189 -553 -1724
10 -124 32 -272 56 -365 l7 -28 -203 71 c-112 39 -213 79 -225 90 -11 11 -31
41 -44 68 l-22 49 371 1093 c221 651 378 1128 387 1179 23 120 15 393 -15 503
-46 173 -154 314 -296 389 -64 33 -833 303 -842 295 -2 -2 -229 -669 -505
-1481 l-502 -1478 -79 -39 -79 -40 -676 230 c-373 126 -684 232 -692 236 -15
6 -82 147 -83 175 -1 27 1314 3884 1344 3942 16 31 26 63 24 70 -3 8 55 191
129 408 74 217 261 768 415 1224 155 455 288 838 296 849 8 12 15 31 15 43 0
12 43 150 96 306 70 206 103 291 123 311 22 24 108 87 118 87 2 0 628 -212
1391 -471z m6657 141 c3 -5 15 -10 26 -10 10 0 19 -4 19 -9 0 -5 9 -11 21 -14
12 -3 18 -10 14 -17 -4 -6 -1 -19 7 -28 23 -29 38 -61 38 -80 0 -10 4 -22 10
-28 16 -16 18 -95 4 -148 -7 -27 -11 -53 -8 -58 3 -4 0 -8 -5 -8 -6 0 -11 -11
-11 -24 0 -13 -7 -29 -15 -36 -8 -7 -15 -19 -15 -26 0 -8 -16 -38 -35 -68 -19
-30 -35 -58 -35 -61 0 -3 -8 -13 -17 -23 -10 -11 -26 -28 -35 -38 -91 -101
-140 -127 -245 -128 -77 -1 -83 1 -112 28 -17 17 -31 36 -31 43 0 7 -4 13 -8
13 -16 0 -42 78 -42 126 0 144 55 316 138 437 18 26 37 47 41 47 5 0 24 14 42
30 39 36 101 70 144 81 45 11 103 10 110 -1z m-7707 -342 c-35 -10 -89 -31
-120 -47 -32 -16 -58 -27 -58 -23 0 4 12 39 26 78 l26 72 94 -31 94 -31 -62
-18z m8490 -38 c37 -22 48 -46 61 -126 6 -42 4 -70 -9 -117 -22 -82 -83 -189
-128 -227 -20 -17 -44 -37 -52 -44 -27 -25 -94 -40 -119 -27 -12 7 -19 16 -16
22 4 5 2 9 -3 9 -16 0 -32 59 -32 114 0 62 29 183 60 251 23 51 72 105 95 105
7 0 15 3 17 8 6 14 63 51 78 52 8 0 30 -9 48 -20z m-8166 -675 c49 -16 56 -21
48 -36 -6 -10 -175 -503 -376 -1096 -261 -766 -368 -1095 -372 -1136 -5 -70
14 -127 62 -179 39 -43 57 -51 272 -125 l161 -55 -24 -77 c-33 -106 -63 -259
-63 -320 0 -28 -3 -51 -7 -51 -5 0 -89 28 -188 62 -161 55 -190 62 -276 66
-83 4 -101 1 -137 -17 -23 -12 -49 -32 -58 -46 -9 -14 -236 -671 -504 -1460
-268 -789 -489 -1437 -492 -1440 -2 -3 -33 5 -67 16 -48 16 -62 25 -58 38 4
13 1977 5828 1992 5870 3 7 11 11 18 8 6 -2 38 -13 69 -22z m718 -204 c168
-59 401 -141 518 -181 270 -92 348 -136 488 -275 90 -89 106 -111 153 -205 71
-145 92 -232 98 -413 5 -125 3 -158 -12 -208 -10 -32 -23 -59 -29 -59 -6 0
-79 24 -163 52 l-151 53 -6 40 c-11 68 -106 366 -141 440 -59 124 -39 114
-585 299 -267 91 -488 162 -492 158 -16 -17 -550 -1614 -542 -1621 5 -5 206
-75 447 -156 l439 -148 86 6 c83 5 226 34 286 57 25 9 55 1 237 -61 l209 -72
-23 -31 c-104 -135 -507 -299 -742 -300 -78 -1 -92 3 -694 209 l-613 209 -41
82 -40 81 360 1059 359 1059 79 41 79 42 65 -25 c36 -14 203 -73 371 -132z
m1591 -576 c124 -64 442 -291 522 -373 48 -49 49 -50 64 -153 24 -167 13 -334
-30 -489 -95 -335 -222 -645 -330 -805 -124 -182 -366 -356 -627 -449 -71 -26
-79 -27 -157 -16 -45 6 -117 20 -160 31 -43 12 -86 21 -95 21 -9 0 -90 -18
-179 -38 l-163 -38 -217 75 -218 74 127 7 c235 12 451 93 664 248 77 56 228
201 228 218 0 18 -48 37 -346 138 l-261 88 -119 -37 c-208 -64 -200 -64 -345
-15 l-125 43 147 430 c104 307 151 429 160 427 43 -9 818 -276 837 -288 59
-38 118 -185 178 -445 l38 -166 252 -86 253 -86 7 36 c10 55 -3 316 -21 423
-38 215 -129 435 -264 637 -83 125 -86 132 -205 514 -20 64 -51 146 -69 182
l-33 65 227 -78 c124 -43 242 -86 260 -95z m-1611 66 c0 -4 -39 -20 -87 -35
-49 -16 -111 -40 -140 -54 l-52 -25 -57 -143 c-32 -79 -59 -143 -60 -141 -2 2
34 111 79 244 l82 240 117 -40 c65 -22 118 -43 118 -46z m7520 -213 c0 -6 3
-8 6 -5 10 10 44 -38 44 -61 0 -12 4 -32 10 -46 13 -35 -2 -110 -41 -198 -33
-75 -34 -77 -90 -139 -53 -58 -183 -98 -227 -70 -28 17 -40 60 -38 133 2 74 5
83 83 233 23 44 51 72 89 90 19 9 32 20 29 25 -3 5 11 18 32 29 43 21 103 27
103 9z m-10197 -396 c41 -20 97 -26 142 -13 21 6 40 9 42 7 4 -4 -107 -328
-116 -338 -3 -4 -38 83 -77 193 -68 190 -70 199 -45 182 14 -9 39 -23 54 -31z
m5897 -982 c17 -63 35 -128 40 -145 5 -16 19 -68 31 -115 12 -47 25 -94 30
-105 5 -11 17 -49 28 -85 11 -36 36 -119 56 -185 20 -66 40 -129 45 -140 9
-22 43 -134 44 -150 2 -13 30 -107 67 -224 17 -52 32 -104 33 -115 1 -12 5
-28 8 -36 3 -8 16 -49 28 -90 12 -41 26 -85 31 -98 5 -13 9 -27 9 -31 0 -4
-49 7 -110 25 -255 78 -505 105 -781 87 -90 -6 -165 -10 -167 -8 -2 1 24 40
57 86 236 329 441 888 502 1369 7 52 14 91 15 85 2 -5 17 -62 34 -125z m-726
-380 c-98 -471 -354 -854 -679 -1017 -88 -45 -185 -78 -195 -67 -5 5 -37 61
-73 124 l-64 115 76 31 c267 108 488 284 699 555 63 81 186 272 232 361 19 37
36 66 37 65 1 -2 -14 -77 -33 -167z m-6844 -825 l0 -75 -77 0 -77 0 74 75 c41
41 76 75 77 75 2 0 3 -34 3 -75z m4810 -178 c38 -7 90 -10 125 -6 33 4 97 10
142 14 l81 8 44 -45 c24 -25 68 -82 97 -127 54 -82 54 -82 41 -124 -7 -23 -21
-58 -31 -78 -10 -20 -21 -65 -25 -100 l-6 -64 -67 -45 c-36 -25 -116 -87 -178
-137 -62 -51 -118 -90 -125 -87 -7 3 -57 64 -112 136 l-98 130 -23 117 c-13
64 -26 142 -30 173 -6 52 -15 69 -92 175 -47 65 -90 123 -94 129 -5 6 57 -4
138 -23 82 -19 177 -40 213 -46z m-1575 19 l100 -33 -86 -5 c-97 -5 -152 -27
-184 -74 -11 -16 -238 -671 -504 -1454 -265 -784 -486 -1428 -490 -1432 -3 -3
-44 7 -90 24 l-83 31 68 36 c88 46 139 85 163 125 10 17 231 656 491 1420 259
764 473 1393 476 1398 3 5 13 6 23 3 9 -3 62 -20 116 -39z m3530 -341 c398
-61 840 -255 1193 -524 134 -102 255 -246 239 -284 -3 -7 -185 -277 -404 -602
-327 -483 -403 -591 -423 -594 -67 -9 -224 47 -600 214 -312 139 -373 155
-526 136 -184 -22 -324 -89 -450 -215 -89 -90 -145 -184 -185 -316 -19 -60
-24 -98 -24 -190 0 -112 1 -117 39 -205 85 -193 230 -416 356 -547 67 -69 203
-163 1241 -862 1111 -749 1173 -789 1317 -854 83 -38 200 -99 259 -134 140
-85 207 -118 323 -161 426 -158 746 -33 940 368 67 138 84 217 78 355 -3 61
-3 110 1 110 3 0 53 -7 111 -15 58 -8 142 -15 187 -15 77 0 84 -2 99 -25 23
-36 14 -230 -16 -335 -68 -239 -268 -529 -470 -681 -91 -69 -228 -134 -345
-166 -88 -23 -119 -26 -265 -27 -134 0 -187 4 -279 22 -269 54 -548 178 -976
435 -247 148 -460 292 -1345 910 l-845 590 -186 186 c-198 199 -282 297 -386
454 -177 268 -248 531 -199 741 8 34 24 104 36 157 44 202 179 406 365 555
362 291 846 293 1445 7 l135 -64 22 25 c35 42 192 260 330 461 186 271 169
237 136 275 -18 22 -78 58 -182 110 -86 42 -221 110 -301 151 -151 77 -278
124 -440 161 -82 19 -125 22 -310 22 -186 1 -229 -2 -317 -22 -299 -65 -602
-216 -843 -417 -408 -342 -765 -930 -879 -1450 -34 -158 -44 -275 -38 -463 8
-260 62 -480 177 -720 27 -56 45 -100 40 -97 -19 12 -10 -11 34 -86 40 -68 73
-108 83 -101 2 1 28 -26 58 -61 62 -72 437 -422 696 -648 375 -329 713 -591
1080 -836 450 -301 704 -455 1029 -623 124 -64 342 -183 485 -265 288 -164
397 -218 607 -299 270 -103 437 -136 694 -136 248 0 428 38 624 131 299 143
525 352 755 699 248 374 356 692 324 956 -15 122 -68 322 -105 396 -19 37 -34
70 -34 73 0 3 35 5 78 5 43 0 165 9 272 20 107 11 220 23 250 25 108 10 249
35 367 66 71 19 133 25 133 13 0 -3 -50 -79 -112 -170 -104 -153 -115 -165
-153 -175 -75 -21 -133 -8 -263 59 -66 34 -123 62 -126 62 -3 0 3 -24 13 -52
53 -154 65 -235 66 -433 0 -197 -5 -233 -51 -397 -89 -318 -329 -699 -644
-1021 -208 -214 -380 -342 -605 -452 -405 -198 -815 -233 -1345 -115 -175 39
-271 80 -834 354 l-561 273 -929 627 c-511 345 -952 646 -980 669 -211 173
-594 550 -987 974 -181 194 -212 233 -251 310 -89 173 -211 503 -242 653 -8
41 -16 127 -16 190 -1 63 -6 140 -10 170 -34 215 -33 257 11 470 57 277 214
646 392 919 134 207 163 247 261 371 294 369 661 651 1050 805 140 56 344 109
476 124 52 6 111 13 130 15 67 8 346 -4 445 -19z m-73 -490 c140 -24 273 -77
716 -282 111 -52 161 -80 158 -89 -3 -7 -37 -61 -77 -120 l-71 -106 -46 6
c-217 28 -490 26 -604 -5 -45 -12 -176 -75 -242 -116 l-39 -25 -176 6 c-161 7
-188 5 -321 -18 -80 -14 -177 -35 -216 -48 l-71 -24 120 181 c66 99 138 202
161 229 106 129 530 425 607 426 9 0 55 -7 101 -15z m-1798 -1040 c-38 -109
-143 -458 -180 -596 -68 -259 -60 -583 21 -864 181 -626 720 -1305 1500 -1890
83 -62 319 -226 525 -365 206 -139 380 -257 385 -263 35 -36 -293 165 -560
343 -687 458 -1300 955 -1575 1276 -249 290 -393 513 -470 729 -120 338 -113
688 21 1090 73 219 148 366 259 505 51 63 94 121 97 128 3 7 7 12 8 10 2 -2
-12 -48 -31 -103z m3650 -72 c32 -112 44 -154 79 -272 l25 -85 -23 -36 c-13
-20 -191 -286 -397 -591 -206 -305 -377 -559 -381 -566 -5 -7 111 -91 328
-237 184 -124 338 -226 343 -226 4 0 100 137 212 305 113 167 208 305 213 305
4 0 7 -6 7 -14 0 -8 12 -52 26 -98 14 -46 30 -101 36 -123 5 -22 22 -71 36
-110 44 -118 48 -107 -151 -401 -97 -143 -182 -266 -190 -272 -7 -6 -50 -21
-94 -33 l-82 -22 -273 184 c-150 101 -400 269 -554 373 l-281 189 -16 85 -16
85 557 828 c306 456 559 828 562 829 3 0 18 -44 34 -97z m5801 -321 c5 -105 3
-204 -4 -267 -14 -124 -48 -296 -61 -309 -6 -6 -10 -22 -10 -38 0 -17 -7 -31
-20 -38 -11 -6 -20 -15 -20 -21 0 -6 5 -7 10 -4 13 8 -53 -119 -78 -151 -9
-11 -37 -48 -61 -80 -24 -32 -61 -75 -82 -94 -111 -105 -142 -130 -154 -128
-8 2 -14 -1 -15 -7 -2 -14 -21 -35 -30 -35 -5 0 -6 9 -3 20 3 11 0 20 -6 20
-6 0 -11 -7 -11 -15 0 -7 -6 -18 -14 -22 -8 -4 -16 -17 -18 -28 -2 -13 -10
-19 -22 -17 -13 3 -17 -1 -13 -12 3 -8 2 -18 -3 -21 -4 -3 -10 0 -12 6 -4 12
-38 1 -38 -13 0 -6 7 -8 15 -4 30 11 14 -4 -32 -30 -27 -15 -60 -35 -75 -46
-16 -10 -28 -14 -28 -8 0 18 -17 11 -23 -9 -6 -23 -102 -75 -120 -65 -7 4 -9
3 -4 -1 4 -5 -5 -17 -20 -27 -27 -18 -192 -102 -203 -103 -3 -1 -18 -8 -35
-17 -16 -8 -70 -30 -120 -48 -49 -18 -112 -43 -140 -55 -90 -40 -277 -111
-405 -153 -344 -113 -406 -132 -540 -165 -222 -54 -416 -97 -468 -103 -26 -3
-92 -12 -147 -20 -228 -34 -348 -42 -607 -42 -146 0 -287 4 -314 8 -27 5 -78
11 -114 14 -53 4 -189 27 -235 39 -230 63 -328 115 -435 231 -19 21 -51 55
-71 77 -31 34 -74 112 -215 389 -18 36 -34 78 -36 92 -2 15 -7 30 -11 34 -22
23 2 19 65 -10 69 -32 72 -36 102 -98 17 -36 36 -71 42 -79 6 -8 15 -25 19
-38 10 -32 62 -118 95 -155 71 -82 117 -131 135 -145 11 -9 35 -32 55 -51 19
-19 51 -46 70 -60 19 -13 40 -29 46 -35 19 -18 198 -104 246 -118 26 -8 51
-11 57 -8 12 8 -9 81 -24 81 -15 0 -110 89 -108 100 2 6 -4 10 -12 10 -8 0
-15 7 -15 15 0 7 -6 18 -13 22 -16 10 -87 124 -87 139 0 7 -6 17 -14 23 -7 6
-28 51 -46 99 -18 48 -36 92 -40 97 -5 6 -11 27 -15 48 l-8 39 99 -7 c108 -8
471 -8 483 -1 4 3 61 6 127 7 65 1 169 8 229 15 61 7 173 20 250 29 77 8 154
17 170 20 17 3 50 7 75 9 75 7 335 63 515 111 94 25 184 48 200 51 17 3 55 14
85 24 30 10 71 22 90 25 19 4 44 12 55 18 11 6 25 12 30 13 24 5 221 77 230
84 6 4 24 10 40 14 17 4 44 13 60 21 17 7 46 18 65 25 19 7 60 24 90 37 136
62 174 77 252 104 55 18 95 38 164 80 l31 19 11 -58 c26 -139 33 -204 33 -312
-1 -129 -16 -269 -31 -284 -15 -15 -12 -63 5 -80 14 -14 21 -13 65 4 28 11 67
31 89 44 21 14 41 22 44 19 4 -3 21 7 39 22 17 15 42 31 54 35 22 9 122 73
202 130 23 16 46 30 51 30 12 0 52 50 46 59 -2 5 7 16 21 26 14 9 23 23 20 30
-7 19 27 83 42 78 6 -3 12 0 12 6 0 6 -5 11 -10 11 -9 0 -6 73 5 110 3 9 7
101 10 205 l4 190 42 42 c52 53 76 55 84 11 3 -18 6 -42 5 -53 0 -11 -2 -76
-4 -145 -2 -69 -6 -145 -10 -170 -18 -107 -18 -100 7 -100 22 0 67 40 67 59 0
5 6 16 14 24 32 32 139 274 135 305 -1 4 0 9 1 12 11 29 13 81 15 306 l3 262
33 48 33 48 7 -27 c4 -15 10 -103 14 -195z m-6467 34 c131 -89 170 -121 164
-132 -4 -8 -179 -268 -387 -577 l-380 -564 -170 114 c-117 79 -192 137 -241
188 -131 135 -290 403 -330 555 -24 91 -22 210 4 284 26 71 66 125 104 140 15
6 28 14 28 18 0 30 157 -36 358 -150 211 -119 246 -131 326 -111 67 17 135 83
242 234 49 69 93 124 99 121 5 -2 88 -56 183 -120z m-1950 -76 c-14 -109 -3
-367 20 -475 28 -126 55 -201 122 -340 105 -216 244 -387 480 -589 25 -21 -34
15 -130 80 -301 202 -488 381 -624 597 -129 206 -146 415 -49 586 24 41 182
226 188 219 1 -2 -2 -37 -7 -78z m2211 -1238 l1 -32 -70 47 c-39 25 -69 49
-68 52 2 3 28 43 58 88 l55 81 12 -101 c6 -56 12 -117 12 -135z m-1334 -1099
c512 -352 1004 -689 1094 -748 396 -261 790 -476 996 -544 353 -117 715 -102
1079 43 l115 47 218 -3 c175 -2 231 1 284 14 91 23 171 54 214 84 l36 24 -7
-22 c-26 -85 -169 -318 -345 -564 -83 -116 -209 -232 -300 -276 -101 -50 -172
-62 -327 -55 -136 5 -234 28 -376 87 -72 30 -99 45 -486 272 -118 69 -414 239
-657 377 -734 416 -1062 632 -1596 1053 -419 331 -600 489 -756 662 -122 134
-261 306 -261 321 0 5 33 -22 73 -61 53 -53 309 -234 1002 -711z m2268 448
c176 -119 265 -161 338 -161 16 0 50 -17 85 -43 70 -51 220 -128 285 -146 38
-11 46 -16 42 -32 -6 -22 15 -26 23 -5 5 12 12 13 50 1 24 -7 44 -11 44 -8 0
3 11 -11 25 -31 40 -59 82 -256 70 -329 -6 -32 -135 -247 -149 -247 -17 0
-150 47 -189 66 -26 14 -125 77 -220 142 -94 65 -295 201 -444 302 -150 101
-273 187 -273 192 0 10 229 348 236 348 3 0 37 -22 77 -49z m1719 -491 l40 0
-4 -88 c-3 -78 -7 -97 -40 -164 -33 -66 -48 -84 -119 -139 -44 -35 -86 -67
-93 -71 -7 -4 0 27 15 75 30 89 52 247 47 330 l-3 52 45 6 c25 3 51 4 58 2 8
-1 32 -3 54 -3z m999 -332 c31 -49 17 -185 -37 -368 -20 -69 -42 -144 -48
-167 -8 -30 -48 -89 -130 -193 -65 -82 -120 -150 -122 -150 -1 0 10 28 25 63
65 143 91 292 90 511 0 88 -6 199 -13 245 l-12 84 120 -7 c76 -4 123 -10 127
-18z"/>
<path d="M12800 15237 c-3 -2 -71 -8 -152 -11 -81 -4 -164 -9 -185 -11 -21 -2
-96 -9 -168 -15 -221 -19 -388 -40 -426 -55 -20 -8 -39 -12 -42 -9 -3 3 -30
-2 -60 -11 -30 -9 -59 -15 -63 -13 -5 1 -27 -1 -49 -5 -92 -18 -122 -47 -68
-68 27 -10 181 -7 326 7 45 4 67 3 67 -5 0 -6 -10 -13 -22 -15 -36 -8 -102
-20 -118 -22 -8 -1 -49 -9 -90 -18 -41 -9 -142 -30 -225 -47 -282 -57 -601
-143 -684 -185 -13 -7 -57 -45 -98 -84 -69 -68 -89 -100 -60 -100 17 0 92 24
156 49 30 12 60 20 66 17 18 -6 98 14 110 28 16 19 43 26 48 13 3 -8 10 -5 21
8 12 14 19 16 22 8 3 -7 10 -13 15 -13 6 0 8 4 5 8 -5 9 115 40 280 72 55 11
111 23 125 25 13 3 55 10 93 15 37 6 72 13 77 16 5 2 21 7 36 10 16 2 75 13
133 23 105 19 369 49 425 48 17 0 48 2 70 6 150 22 685 31 705 11 12 -12 -65
-63 -155 -103 -27 -13 -62 -29 -77 -37 -24 -13 -27 -13 -22 -1 6 18 -11 31
-27 21 -8 -5 -8 -9 1 -14 7 -4 10 -12 6 -18 -9 -15 -123 -72 -144 -72 -10 0
-22 -4 -27 -8 -6 -4 -28 -14 -50 -21 -22 -7 -49 -16 -60 -21 -62 -27 -216 -87
-320 -126 -66 -24 -129 -48 -140 -53 -11 -5 -54 -19 -95 -30 -91 -26 -267 -80
-295 -91 -11 -4 -54 -18 -95 -30 -41 -13 -108 -33 -148 -46 -115 -38 -232 -66
-247 -60 -8 3 -19 14 -25 26 -9 18 -7 21 17 30 15 6 42 17 58 24 73 33 102 45
135 56 19 7 44 16 55 21 11 5 78 29 149 54 72 25 144 52 160 60 17 7 94 34
171 60 77 25 149 50 160 55 11 4 74 22 140 40 66 17 129 35 140 40 11 5 40 14
65 21 29 7 57 24 82 50 38 39 38 39 18 59 -21 21 -64 21 -195 0 -33 -5 -98
-14 -145 -20 -155 -20 -372 -51 -450 -65 -8 -1 -35 -6 -60 -10 -82 -12 -191
-35 -385 -80 -33 -8 -150 -35 -260 -60 -110 -25 -209 -50 -220 -54 -11 -5 -39
-17 -63 -26 -23 -10 -59 -19 -80 -20 -20 -1 -52 -5 -70 -10 -19 -4 -43 -8 -55
-10 -49 -6 -272 -66 -281 -75 -6 -6 -19 -10 -30 -10 -39 0 -359 -167 -386
-200 -3 -4 -41 -32 -85 -62 -44 -31 -115 -90 -158 -132 l-78 -76 -87 -5 c-48
-2 -123 -7 -167 -11 -69 -6 -83 -4 -98 10 -21 21 -21 27 -3 52 14 19 14 19 13
-1 -1 -12 4 -20 13 -20 10 0 15 10 15 30 0 32 17 53 75 88 19 11 41 27 48 34
7 7 20 13 28 13 8 0 14 4 14 8 0 9 147 96 165 97 18 2 145 61 240 112 47 26
166 73 184 73 6 0 29 9 50 20 21 10 41 16 45 13 11 -11 46 29 46 52 0 12 9 33
19 47 27 34 104 110 130 128 28 19 27 44 -4 58 -21 10 -45 4 -157 -34 -73 -24
-171 -56 -218 -70 -47 -14 -89 -29 -95 -34 -5 -4 -28 -13 -50 -19 -51 -15
-121 -45 -210 -89 -38 -18 -95 -43 -125 -54 -30 -11 -62 -26 -70 -32 -8 -6
-37 -22 -65 -35 -27 -13 -61 -30 -75 -38 -14 -8 -54 -29 -90 -47 -36 -18 -81
-42 -100 -51 -46 -24 -191 -115 -206 -129 -6 -6 -29 -24 -50 -41 -44 -34 -88
-78 -121 -121 -30 -39 -31 -104 -2 -122 54 -34 99 -52 140 -57 141 -16 598 1
772 29 40 7 133 14 267 21 58 3 125 10 150 16 25 5 59 11 75 14 155 22 250 39
305 55 65 18 145 36 210 46 19 3 38 8 41 9 3 2 28 7 55 10 27 3 63 10 79 15
17 5 50 12 75 15 80 11 203 35 305 60 55 14 109 27 120 29 11 3 63 16 115 31
52 14 137 37 189 51 52 14 108 31 125 39 17 8 78 28 136 44 106 30 298 93 335
110 11 5 40 16 65 24 48 15 122 46 205 83 28 12 79 32 115 44 36 12 76 28 90
36 33 17 106 49 150 66 19 7 72 32 118 56 46 23 88 42 93 42 11 0 249 116 304
148 17 9 45 27 63 40 17 13 32 22 32 19 0 -2 25 19 55 48 30 28 55 55 55 61 0
6 11 21 25 34 36 34 50 83 33 120 -7 17 -18 30 -24 30 -5 0 -19 8 -30 19 -11
10 -40 21 -65 24 -24 3 -51 8 -59 11 -35 12 -499 33 -510 23z m-1899 -899 c52
-23 109 -81 109 -112 0 -13 5 -28 10 -31 22 -14 10 -42 -23 -52 -36 -11 -42
-7 -66 40 -24 45 -62 77 -131 107 -57 26 -77 29 -163 30 -99 0 -224 -24 -294
-55 -17 -8 -34 -15 -38 -15 -18 0 -228 -102 -233 -112 -2 -5 -8 -8 -14 -8 -6
0 -33 -17 -62 -37 -67 -50 -70 -52 -119 -98 -88 -83 -89 -83 -162 -90 l-70 -7
35 23 c19 12 45 31 56 43 47 47 160 128 239 171 11 6 29 16 40 23 38 21 190
89 240 107 28 10 55 22 60 25 6 4 51 20 100 35 50 15 95 29 100 31 6 2 87 2
180 1 128 -3 179 -7 206 -19z m-88 -217 l17 -29 -63 -15 c-34 -9 -89 -21 -122
-26 -33 -6 -94 -17 -135 -25 -239 -46 -412 -76 -417 -71 -9 6 63 66 115 95 23
13 42 27 42 32 0 4 7 8 15 8 8 0 15 4 15 9 0 12 60 21 180 26 114 4 263 16
269 21 2 2 18 4 36 4 23 0 35 -7 48 -29z"/>
<path d="M13563 15008 c-6 -7 -20 -31 -32 -53 -27 -48 -177 -171 -276 -226
-113 -62 -347 -176 -380 -184 -28 -6 -52 -15 -130 -50 -16 -7 -46 -18 -65 -25
-19 -7 -44 -16 -55 -20 -11 -5 -38 -14 -60 -20 -22 -7 -53 -18 -70 -25 -81
-34 -191 -75 -203 -75 -7 0 -37 -11 -67 -25 -29 -14 -57 -25 -62 -24 -36 6
-41 -2 -45 -66 -4 -83 9 -93 97 -71 73 19 224 69 250 84 32 18 88 40 125 50
19 5 73 25 120 45 118 48 131 52 124 33 -4 -10 -1 -16 9 -16 21 0 34 23 17 28
-7 3 16 17 51 32 117 50 164 71 182 81 10 5 44 24 75 41 50 27 75 44 130 89 8
7 12 7 12 -1 0 -5 5 -10 11 -10 6 0 8 7 5 15 -4 11 0 15 12 13 10 -2 17 3 16
12 -1 12 7 15 29 14 43 -3 77 35 45 50 -7 3 -3 3 9 0 14 -3 25 1 32 13 6 10
11 14 11 10 0 -4 15 9 32 30 18 21 37 41 41 44 4 3 7 10 6 15 -4 17 13 44 25
37 6 -3 8 -3 4 1 -4 5 2 22 12 40 22 40 32 87 22 102 -12 19 -48 26 -59 12z"/>
<path d="M11162 8382 c-31 -5 -48 -49 -28 -71 7 -9 24 -54 35 -101 12 -47 24
-92 26 -100 3 -8 9 -35 15 -60 6 -25 15 -54 20 -65 5 -11 21 -69 35 -130 14
-60 35 -141 47 -180 11 -38 20 -80 20 -92 0 -13 4 -23 7 -23 4 0 15 -33 26
-72 10 -40 21 -77 26 -83 4 -5 10 -28 14 -50 12 -69 54 -224 66 -240 3 -5 10
-32 14 -60 4 -27 10 -54 14 -60 4 -5 16 -37 25 -70 10 -33 23 -76 29 -95 6
-19 12 -37 12 -40 1 -3 4 -12 8 -20 5 -14 40 -129 41 -140 1 -3 4 -9 7 -15 4
-5 14 -37 24 -70 9 -33 21 -71 25 -85 5 -14 12 -41 15 -60 4 -19 15 -50 26
-67 l18 -33 -27 0 c-37 0 -199 -45 -242 -67 -115 -60 -273 -209 -314 -299 -15
-32 -32 -66 -36 -76 -5 -9 -21 -60 -35 -115 -48 -177 -40 -360 26 -588 21 -70
25 -81 74 -190 26 -58 112 -205 125 -215 4 -3 9 -10 11 -16 14 -38 199 -233
289 -306 49 -39 160 -96 228 -118 23 -7 42 -16 42 -20 0 -23 276 -41 381 -25
l45 7 18 -64 c30 -103 35 -108 114 -108 55 0 243 21 487 55 71 10 705 161 839
200 31 9 61 13 67 9 8 -4 9 -3 5 4 -4 7 -5 12 -3 12 8 0 212 61 232 69 60 25
89 36 180 66 97 33 199 72 260 100 17 8 98 46 180 86 83 39 170 80 195 91 115
52 430 216 451 234 8 8 21 14 27 14 7 0 12 5 12 10 0 6 17 18 37 28 20 9 48
27 62 40 13 12 63 46 109 74 46 29 86 58 89 65 3 8 17 20 32 27 72 38 306 280
328 341 28 75 38 185 21 219 -6 10 -12 33 -15 50 -2 17 -10 45 -18 61 -8 17
-19 53 -26 80 -7 28 -20 69 -30 92 -11 24 -19 51 -19 61 0 10 -9 43 -20 75
-11 31 -20 63 -20 72 0 8 -13 34 -30 57 -16 22 -30 45 -30 50 0 14 -53 91 -80
116 -41 38 -138 102 -154 102 -8 0 -18 5 -22 11 -11 19 -115 4 -171 -24 -27
-14 -79 -53 -114 -86 -35 -34 -67 -61 -71 -61 -5 0 -8 -5 -8 -10 0 -6 -11 -22
-25 -36 -14 -14 -25 -29 -25 -34 0 -6 -7 -10 -15 -10 -8 0 -15 -5 -15 -11 0
-5 -18 -34 -41 -62 -22 -29 -68 -88 -101 -132 -34 -44 -65 -82 -68 -85 -3 -3
-13 -14 -21 -26 -8 -12 -34 -45 -59 -75 -106 -126 -149 -165 -224 -203 -67
-35 -80 -38 -123 -32 -26 3 -52 11 -57 16 -6 6 -17 10 -26 10 -9 0 -26 9 -38
20 -12 11 -25 20 -30 20 -20 0 -74 71 -101 136 -77 181 -76 167 -96 1039 -1
55 -3 100 -4 100 -1 0 -4 36 -7 80 -6 105 -12 164 -19 195 -3 14 -10 54 -16
90 -14 91 -47 224 -72 295 -36 100 -108 225 -131 225 -3 0 -17 11 -31 24 -58
54 -104 70 -195 70 -105 0 -182 -22 -235 -68 -32 -28 -43 -32 -59 -24 -16 9
-18 7 -13 -11 3 -13 -3 -28 -18 -43 -21 -22 -217 -316 -245 -368 -35 -67 -165
-214 -181 -205 -5 4 -9 0 -9 -7 0 -16 -59 -55 -112 -74 -146 -51 -372 56 -519
246 -35 45 -142 213 -194 304 -30 54 -57 87 -122 153 -24 24 -43 46 -43 50 0
5 -27 34 -60 67 -33 32 -64 64 -68 70 -11 18 -117 85 -170 107 -26 12 -60 27
-77 34 -35 15 -58 22 -100 30 -27 5 -60 8 -215 18 -25 2 -55 2 -68 -1z m706
-2185 c6 -5 17 -5 23 -2 16 10 152 -36 172 -58 10 -11 20 -17 23 -14 6 6 103
-45 132 -68 7 -5 18 -14 25 -20 7 -5 30 -23 52 -40 64 -48 105 -93 105 -116 0
-15 5 -19 15 -15 10 3 20 -5 30 -24 8 -16 26 -41 40 -56 14 -15 25 -33 25 -40
0 -7 11 -24 25 -38 22 -22 49 -74 45 -85 -1 -2 4 -7 12 -12 7 -5 13 -12 13
-16 0 -4 8 -19 17 -33 19 -29 36 -74 71 -190 14 -47 32 -106 40 -133 22 -73
11 -350 -17 -432 -71 -210 -214 -358 -396 -413 -111 -33 -267 -36 -360 -7
-129 40 -254 100 -244 117 4 6 3 8 -3 5 -5 -3 -21 5 -36 19 -14 13 -28 24 -31
24 -14 0 -232 234 -225 242 2 3 -3 11 -11 20 -23 24 -55 70 -55 79 0 5 -7 16
-15 26 -19 24 -50 90 -50 108 0 8 -4 15 -10 15 -5 0 -10 7 -10 15 0 8 -4 23
-10 33 -14 24 -40 102 -46 137 -3 17 -12 49 -20 73 -30 90 -38 254 -17 357 8
39 17 79 19 90 7 37 49 150 56 153 5 2 8 11 8 20 0 15 42 58 150 156 59 53
139 92 230 112 97 22 201 27 228 11z"/>
</g>
</svg>
